<svg width="17" height="15" viewBox="0 0 17 15" fill="none" xmlns="http://www.w3.org/2000/svg">
<path d="M3.80833 11.9833C1.95 10.7666 0.75 8.93325 0.75 7.32492C0.75 4.59158 4.2 1.24158 8.45833 1.24158C10.2 1.24158 11.8167 1.79992 13.1167 2.66658" stroke="#727272" stroke-width="1.5" stroke-linecap="round" stroke-linejoin="round"/>
<path d="M14.9998 4.38358C15.7423 5.32525 16.1748 6.36692 16.1748 7.32525C16.1748 10.0586 12.7164 13.4086 8.45809 13.4086C7.69975 13.4086 6.95892 13.3002 6.26642 13.1086" stroke="#727272" stroke-width="1.5" stroke-linecap="round" stroke-linejoin="round"/>
<path d="M6.59642 9.18092C6.10059 8.69008 5.82309 8.02092 5.82559 7.32342C5.82225 5.86925 6.99892 4.68759 8.45392 4.68509C9.15392 4.68342 9.82559 4.96092 10.3206 5.45592" stroke="#727272" stroke-width="1.5" stroke-linecap="round" stroke-linejoin="round"/>
<path d="M11.0496 7.791C10.8546 8.86767 10.0121 9.71183 8.93542 9.90933" stroke="#727272" stroke-width="1.5" stroke-linecap="round" stroke-linejoin="round"/>
<path d="M15.0347 0.75L1.88975 13.895" stroke="#727272" stroke-width="1.5" stroke-linecap="round" stroke-linejoin="round"/>
</svg>
